<?xml version="1.0" encoding="utf-8"?>
<!-- Generator: Adobe Illustrator 26.0.2, SVG Export Plug-In . SVG Version: 6.00 Build 0)  -->
<svg version="1.1" id="Layer_1" xmlns="http://www.w3.org/2000/svg" xmlns:xlink="http://www.w3.org/1999/xlink" x="0px" y="0px"
	 viewBox="0 0 68.4 22.4" style="enable-background:new 0 0 68.4 22.4;" xml:space="preserve">
<style type="text/css">
	.st0{fill:#EC008C;}
</style>
<g>
	<g>
		<path class="st0" d="M9.7,13.5L8.8,14c0,0-0.1-0.3-0.4-0.9c-0.2-0.5-0.5-1.2-0.9-2.1H4c-0.4,0.9-0.7,1.6-1,2.1
			c-0.2,0.5-0.3,0.8-0.4,0.8l-0.8-0.4c0.1-0.2,0.5-1.1,1.3-2.7s1.5-3.3,2.3-5h0.8C7,7.6,7.8,9.3,8.5,11S9.7,13.5,9.7,13.5z
			 M7.2,10.3C7,9.8,6.7,9.3,6.5,8.8S6,7.7,5.8,7.2l0,0c-0.2,0.4-0.4,1-0.7,1.6s-0.5,1.1-0.7,1.5l0,0H7.2L7.2,10.3z"/>
		<path d="M17.2,13.4L16.5,14c-0.1-0.1-0.4-0.4-0.9-1s-1.3-1.5-2.4-2.8v-0.1c0.1,0,0.3-0.1,0.6-0.3s0.5-0.3,0.6-0.4
			c0.1-0.1,0.3-0.3,0.4-0.5C14.9,8.7,15,8.4,15,8.1s-0.1-0.6-0.2-0.8C14.5,7.2,14.3,7,14,6.9c-0.2-0.1-0.5-0.1-0.7-0.2s-0.5,0-0.7,0
			c-0.1,0-0.2,0-0.3,0s-0.1,0-0.2,0c0,0.7,0,1.4,0,2s0,1,0,1.2c0,0.5,0,1.3,0,2.2s0,1.5,0,1.7h-1c0-0.2,0-0.7,0-1.4s0-1.5,0-2.5
			c0-0.2,0-0.6,0-1.1s0-1.5,0-2.9c0,0,0.2,0,0.6,0c0.4,0,0.7,0,1,0s0.7,0,1,0.1c0.3,0,0.6,0.1,0.9,0.3C15,6.4,15.3,6.7,15.5,7
			s0.3,0.7,0.3,1.1c0,0.6-0.2,1-0.5,1.4s-0.7,0.6-1,0.8l0,0c0.5,0.6,1.1,1.3,1.8,1.9C16.8,13,17.2,13.3,17.2,13.4z"/>
		<path d="M23.7,13.8c0,0-0.3,0-0.8,0s-1.1,0-1.8,0c-0.5,0-1,0-1.4,0s-0.8,0-1,0c0-0.2,0-0.7,0-1.5s0-1.5,0-2.3c0-0.4,0-1,0-1.8
			s0-1.5,0-2.3c0.3,0,0.6,0,1,0s0.8,0,1.3,0c0.7,0,1.4,0,1.8,0s0.7,0,0.8,0v0.8c0,0-0.3,0-0.7,0s-1,0-1.7,0c-0.3,0-0.6,0-0.9,0
			s-0.5,0-0.7,0c0,0.4,0,0.9,0,1.3c0,0.4,0,0.9,0,1.2c0.2,0,0.4,0,0.6,0s0.5,0,0.6,0c0.7,0,1.3,0,1.8,0s0.8,0,0.9,0V10
			c0,0-0.4,0-1,0s-1.2,0-1.7,0c-0.2,0-0.4,0-0.7,0s-0.5,0-0.7,0c0,0.7,0,1.3,0,1.8s0,0.8,0,1.1c0.2,0,0.5,0,0.8,0s0.7,0,1.1,0
			c0.6,0,1.1,0,1.5,0s0.6,0,0.7,0v0.9H23.7z"/>
		<path d="M31.4,6.8c-0.1,0-0.3,0-0.8,0s-1.2,0-2.1,0c0,0.8,0,1.4,0,1.8c0,0.4,0,1,0,1.7s0,1.4,0,2.1s0,1.2,0,1.4h-1
			c0-0.2,0-0.7,0-1.4s0-1.4,0-2.1c0-0.7,0-1.2,0-1.6s0-1,0-1.9c-0.8,0-1.5,0-2,0s-0.8,0-0.9,0V6c0.4,0,0.9,0,1.5,0s1.2,0,1.8,0
			c0.9,0,1.7,0,2.4,0s1,0,1,0v0.8H31.4z"/>
		<path d="M39.5,13.8h-1c0-0.2,0-0.7,0-1.3s0-1.4,0-2.4c-0.1,0-0.4,0-1,0s-1.1,0-1.4,0c-0.4,0-0.9,0-1.4,0s-0.8,0-0.9,0
			c0,1.1,0,1.9,0,2.5s0,1,0,1.2h-1c0-0.2,0-0.7,0-1.2s0-1.6,0-3c0-0.4,0-1,0-1.6s0-1.3,0-2h1c0,0.6,0,1.2,0,1.7s0,1.1,0,1.6
			c0,0,0.3,0,0.8,0s1,0,1.5,0c0.4,0,0.9,0,1.5,0s0.9,0,0.9,0c0-0.5,0-1.1,0-1.6s0-1.2,0-1.8h1c0,0.6,0,1.3,0,2s0,1.4,0,1.9
			c0,1.1,0,2,0,2.6S39.5,13.6,39.5,13.8z"/>
		<path d="M48.7,13.5L47.8,14c0,0-0.1-0.3-0.4-0.9c-0.2-0.5-0.5-1.2-0.9-2.1H43c-0.4,0.9-0.7,1.6-1,2.1c-0.2,0.5-0.3,0.8-0.4,0.8
			l-0.8-0.4c0.1-0.2,0.5-1.1,1.3-2.7s1.5-3.3,2.3-5h0.8c0.8,1.7,1.5,3.4,2.3,5.1S48.7,13.5,48.7,13.5z M46.2,10.3
			c-0.2-0.5-0.4-1-0.7-1.5c-0.2-0.5-0.5-1.1-0.7-1.6l0,0c-0.2,0.4-0.4,1-0.7,1.6s-0.5,1.1-0.7,1.5l0,0H46.2L46.2,10.3z"/>
	</g>
</g>
<path class="st0" d="M62.1,5.1h-1.4c0.1-0.2,0.1-0.4,0.1-0.7c0-1.1-0.9-2-2-2c-0.7,0-1.3,0.4-1.7,0.9l-0.3,0.4l-0.3-0.5
	c-0.4-0.5-1-0.9-1.7-0.9c-1.1,0-2,0.9-2,2c0,0.2,0,0.5,0.1,0.7h-1.4c-0.7,0-1.3,0.6-1.3,1.3v7.3c0,0.7,0.6,1.3,1.3,1.3h10.6
	c0.7,0,1.3-0.6,1.3-1.3V6.4C63.4,5.7,62.8,5.1,62.1,5.1z M58.8,3.7c0.4,0,0.7,0.3,0.7,0.7s-0.3,0.7-0.7,0.7s-0.7-0.3-0.7-0.7
	C58.1,4,58.4,3.7,58.8,3.7z M54.8,3.7c0.4,0,0.7,0.3,0.7,0.7s-0.3,0.7-0.7,0.7s-0.7-0.3-0.7-0.7C54.1,4,54.4,3.7,54.8,3.7z
	 M62.1,13.7H51.5v-1.3h10.6V13.7z M62.1,10.4H51.5v-4h3.4l-1.4,1.9l1,0.7l2.3-3L59,9l1.1-0.8l-1.4-1.9h3.4V10.4z"/>
</svg>
